<svg width="522" height="47" viewBox="0 0 522 47" fill="none" xmlns="http://www.w3.org/2000/svg">
<path d="M164.682 9.95508C175.091 4.13396 186.343 -1.49014 203.925 1.18555C221.551 3.86804 229.594 10.1757 236.562 15.793C240.052 18.6069 243.316 21.2883 247.378 23.2295C251.454 25.1774 256.313 26.3728 263.007 26.2754C276.4 26.0804 287.506 19.9342 297.366 14.4912C302.313 11.7606 306.932 9.2143 311.401 7.63281C315.862 6.05455 320.128 5.45413 324.372 6.57715C333.101 8.88703 340.794 12.1478 348.713 14.8643C356.61 17.5733 364.67 19.7148 374 19.7148C383.244 19.7148 389.53 19.7158 396.822 18.6484C404.113 17.5812 412.395 15.4486 425.652 11.2012C432.23 9.09381 436.634 8.85186 440.055 9.62109C443.477 10.3908 445.978 12.1837 448.759 14.3057C451.532 16.4221 454.565 18.8507 458.983 20.7363C463.407 22.6241 469.194 23.96 477.5 23.96C494.126 23.96 505.36 18.2212 512.44 12.4639C515.978 9.58766 518.474 6.70961 520.088 4.54785C520.672 3.76606 521.139 3.07698 521.5 2.51562V46.5H0.5V2.03809C0.998902 2.59863 1.70203 3.36399 2.59668 4.27344C4.53186 6.24061 7.36278 8.88671 10.9482 11.6055C18.1137 17.0388 28.3256 22.7871 40.4521 23.957C52.6438 25.1332 64.4075 18.4703 74.7012 12.0664C79.876 8.84699 84.672 5.69578 89.0254 3.55762C93.3904 1.41376 97.1852 0.355281 100.375 1.17578C103.66 2.02092 105.374 3.29426 106.556 4.7666C107.155 5.51423 107.628 6.32633 108.103 7.19824C108.572 8.06105 109.05 8.99613 109.64 9.93066C110.835 11.8258 112.505 13.7476 115.66 15.458C118.8 17.16 123.394 18.6431 130.425 19.709C144.622 21.8614 154.274 15.7752 164.682 9.95508Z" fill="#BA31B1" stroke="black"/>
</svg>
